<svg xmlns="http://www.w3.org/2000/svg"
     width="24"
     height="24"
     viewBox="0 0 24 24"
     fill="none"
     stroke="currentColor"
     stroke-width="2"
     stroke-linecap="round"
     stroke-linejoin="round"
     class="icon icon-tabler icons-tabler-outline icon-tabler-file-type-jpg">

  <path stroke="none" d="M0 0h24v24H0z" fill="none"/>


  <path d="M14,3v4c0,.6 .4,1 1,1h4" />
  <path d="M5,12v-7c0-1.1 .9-2 2-2h7l5,5v4" />


  <path d="M8.3,22.1c-.2 .9 1.3,1.1 1.5,.3 0-1 0-2 0-2.9
           1.2,0 2.6,.2 3.6,-.5 1.6,-1.1 1.3,-4 -.6,-4.8
           -1.4,-.6 -3,-.2 -4.5,-.3 -.2,2.7 0,5.5 0,8.2Z
           M9.7,15.4c.8,0 1.5,0 2.3,0 1,.3 1.3,2 .3,2.5
           -.8,.3 -1.7,.2 -2.6,.2 0,-.9 0,-1.8 0,-2.7Z"
        fill="currentColor" stroke="none"/>


  <path d="M6.5,20.7c.1,-2 0,-4 .1,-6 .2,-.7 -.9,-1.2 -1.4,-.7l-.2,.2
           c-.2,2 .1,4.1 0,6.1 0,1.1 -1.8,1.5 -2.5,.7 -.3,-.6 0,-1.8 -1.1,-1.6
           -1.1,.3 -.6,1.6 -.2,2.3 1.2,2.1 4.9,1.4 5.2,-1Z"
        fill="currentColor" stroke="none"/>


  <path d="M16.3,21.8c1.2,1.5 3.7,1.6 5,.3 1.2,-1 .9,-2.7 .8,-4.1
           -.9,0 -1.8,0 -2.7,0 -.7,0 -.8,1 -.4,1.4 .5,.1 1.1,0 1.7,0
           0,.5 0,1.2 -.5,1.5 -1,.9 -2.8,.4 -3.1,-.9 -.2,-1.2 -.3,-2.5 0,-3.6
           .4,-1.2 2.2,-1.5 3.1,-.6 .3,.4 .5,.8 .8,1.2 .5,.1 1.3,-.2 1.1,-.9
           -.6,-2.4 -4.2,-3 -5.7,-1.3 -.8,.8 -.9,1.9 -.9,3 0,1.3 -.1,2.9 .8,3.9Z"
        fill="currentColor" stroke="none"/>
</svg>
